<?xml version="1.0" encoding="utf-8" ?>
<svg xmlns="http://www.w3.org/2000/svg" version="1.1" height="5000px"  width="2000px">
    <!-- TOP DOT -->
    <polygon points="1000,0 1500,500 1000,1000" fill="#e0d1ae" />
    <polygon points="1000,0 500,500 1000,1000" fill="#699170" />

    <!-- LEFT SIDE -->
    <polygon points="1000,1000 500,1500 1000,2000" fill="#e0d1ae" />
    <polygon points="0,2000 500,1500 500,2500" fill="#b4c0a5" />
    <polygon points="0,3000 500,3500 500,2500" fill="#699170" />
    <polygon points="0,4000 500,4500 500,3500" fill="#e0d1ae" />
    <polygon points="0,3000 0,4000 500,3500" fill="#f1b055" />
    <polygon points="0,2000 0,3000 500,2500" fill="#e0d1ae" />
    <polygon points="500,1500 500,2500 1000,2000" fill="#e8663b" />
    <polygon points="500,2500 500,3500 1000,3000" fill="#b4c0a5" />

    <!-- RIGHT SIDE -->
    <polygon points="1000,1000 1500,1500 1000,2000" fill="#699170" />
    <polygon points="1000,2000 1500,1500 1500,2500" fill="#f1b055" />
    <polygon points="1500,1500 2000,2000 1500,2500" fill="#b4c0a5" />
    <polygon points="1500,2500 2000,2000 2000,3000" fill="#e8663b" />
    <polygon points="1500,2500 2000,3000 1500,3500" fill="#699170" />
    <polygon points="1500,3500 2000,3000 2000,4000" fill="#e0d1ae" />
</svg>
